<?xml version="1.0" encoding="utf-8"?>
<!-- Generator: Adobe Illustrator 24.3.0, SVG Export Plug-In . SVG Version: 6.00 Build 0)  -->
<svg version="1.1" id="レイヤー_1" xmlns="http://www.w3.org/2000/svg" xmlns:xlink="http://www.w3.org/1999/xlink" x="0px"
	 y="0px" viewBox="0 0 40 40" style="enable-background:new 0 0 40 40;" xml:space="preserve">
<style type="text/css">
	.st0{fill:none;stroke:#040000;stroke-linecap:round;stroke-linejoin:round;}
	.st1{fill:#6A3906;}
	.st2{fill:none;stroke:#040000;stroke-width:0.7629;stroke-linecap:round;stroke-linejoin:round;}
</style>
<path class="st0" d="M-55.1-49.7v6c0,6.6,5.4,12,12,12s12-5.4,12-12v-6H-55.1z"/>
<line class="st0" x1="-55.1" y1="-24.7" x2="-31.1" y2="-24.7"/>
<path class="st0" d="M-31.1-49.7h3.3c3.1,0,4.7,1.1,4.7,5c0.2,2.1-1.2,4.1-3.3,4.5"/>
<circle class="st1" cx="-44.8" cy="-34.9" r="1.3"/>
<circle class="st1" cx="-49.6" cy="-37.4" r="1.2"/>
<circle class="st1" cx="-40.8" cy="-34.9" r="1.3"/>
<circle class="st1" cx="-36.4" cy="-36.7" r="1.2"/>
<g>
	<path class="st2" d="M10.6,10.3v4.6c0,5.1,4.1,9.2,9.2,9.2s9.2-4.1,9.2-9.2v-4.6H10.6z"/>
	<line class="st2" x1="10.6" y1="29.3" x2="28.9" y2="29.3"/>
	<path class="st2" d="M28.9,10.3h2.6c2.4,0,3.5,0.8,3.5,3.8c0.1,1.6-0.9,3.1-2.5,3.5"/>
	<circle class="st1" cx="18.4" cy="21.6" r="1"/>
	<circle class="st1" cx="14.8" cy="19.7" r="0.9"/>
	<circle class="st1" cx="21.5" cy="21.6" r="1"/>
	<circle class="st1" cx="24.8" cy="20.2" r="0.9"/>
</g>
</svg>
