<?xml version="1.0" encoding="utf-8"?>
<!-- Generator: Adobe Illustrator 24.3.0, SVG Export Plug-In . SVG Version: 6.00 Build 0)  -->
<svg version="1.1" id="レイヤー_1" xmlns="http://www.w3.org/2000/svg" xmlns:xlink="http://www.w3.org/1999/xlink" x="0px"
	 y="0px" viewBox="0 0 35 40" style="enable-background:new 0 0 35 40;" xml:space="preserve">
<style type="text/css">
	.st0{fill:#6A3906;}
	.st1{fill:none;stroke:#040000;stroke-linecap:round;stroke-linejoin:round;}
</style>
<path class="st0" d="M2.9,19.3c0.9-1.2,4.9,2.6,11.6,2.6c6.2,0,9.7-3.3,10.4-2.3c0.8,1.1-2.7,6.2-8,7.7c-0.6,0.2-5,1.4-9.1-1.2
	C4.4,24.1,2.1,20.3,2.9,19.3z"/>
<path class="st1" d="M1.9,9.9v6c0,6.6,5.4,12,12,12s12-5.4,12-12v-6H1.9z"/>
<line class="st1" x1="1.9" y1="34.9" x2="25.9" y2="34.9"/>
<path class="st1" d="M25.9,9.9h3.3c3.1,0,4.6,1.1,4.6,5c0.2,2.1-1.2,4.1-3.3,4.5"/>
</svg>
