<?xml version="1.0" encoding="utf-8"?>
<!-- Generator: Adobe Illustrator 24.3.0, SVG Export Plug-In . SVG Version: 6.00 Build 0)  -->
<svg version="1.1" id="レイヤー_1" xmlns="http://www.w3.org/2000/svg" xmlns:xlink="http://www.w3.org/1999/xlink" x="0px"
	 y="0px" viewBox="0 0 40 40" style="enable-background:new 0 0 40 40;" xml:space="preserve">
<style type="text/css">
	.st0{fill:#6A3906;}
	.st1{fill:none;stroke:#040000;stroke-width:0.7985;stroke-linecap:round;stroke-linejoin:round;}
</style>
<g>
	<path class="st0" d="M10.6,19.8c0.2-0.2,1,0.3,2.9,0.9c0,0,1.6,0.5,3.5,0.7c1.4,0.2,3.9,0.5,6.7-0.4c1.9-0.6,2.8-1.3,3-1.1
		c0.3,0.4-1.6,2.7-4.1,3.7c-1.1,0.4-2.2,0.5-2.8,0.6c-0.7,0.1-1.7,0.2-3,0c-0.6-0.1-1.9-0.3-3.3-1.2C11.7,21.9,10.4,20.2,10.6,19.8z
		"/>
	<path class="st1" d="M9.2,10.3v4.8c0,5.3,4.3,9.6,9.6,9.6s9.6-4.3,9.6-9.6v-4.8H9.2z"/>
	<line class="st1" x1="9.2" y1="30.2" x2="28.3" y2="30.2"/>
	<path class="st1" d="M28.3,10.3H31c2.5,0,3.7,0.9,3.7,4c0.1,1.7-1,3.2-2.6,3.6"/>
</g>
</svg>
