<?xml version="1.0" encoding="utf-8"?>
<!-- Generator: Adobe Illustrator 24.3.0, SVG Export Plug-In . SVG Version: 6.00 Build 0)  -->
<svg version="1.1" id="レイヤー_1" xmlns="http://www.w3.org/2000/svg" xmlns:xlink="http://www.w3.org/1999/xlink" x="0px"
	 y="0px" viewBox="0 0 40 40" style="enable-background:new 0 0 40 40;" xml:space="preserve">
<style type="text/css">
	.st0{fill:#6A3906;}
	.st1{fill:none;stroke:#040000;stroke-width:0.8078;stroke-linecap:round;stroke-linejoin:round;}
</style>
<g>
	<path class="st0" d="M9.4,15.4c0.3-0.3,0.9-0.1,1.2,0c0.4,0.1,2,0.3,5.2,0.7c1.5,0.2,2.6,0.2,4.7,0.1c1.2,0,1.8-0.1,3.1-0.1
		c2.3-0.2,2.7-0.3,2.9-0.5c0.1-0.1,0.5-0.4,1.2-0.6c0.2-0.1,0.4-0.1,0.5,0c0.5,0.3-0.4,2.7-0.5,3.1c-0.6,1.6-1,2.5-1.9,3.5
		c-1.2,1.2-2.5,1.6-4,2.2c-1,0.3-1.8,0.6-2.9,0.6c-1.3,0-2.2-0.3-3.1-0.6c-0.7-0.2-1.5-0.5-2.4-1.1c-0.2-0.1-0.9-0.7-1.8-1.6
		c-1-1.2-1.4-2.3-1.9-3.6C9.1,15.9,9.2,15.5,9.4,15.4z"/>
	<path class="st1" d="M9.1,9.9v4.8c0,5.4,4.3,9.7,9.7,9.7s9.7-4.3,9.7-9.7V9.9H9.1z"/>
	<line class="st1" x1="9.1" y1="30.1" x2="28.5" y2="30.1"/>
	<path class="st1" d="M28.5,9.9h2.7c2.5,0,3.8,0.9,3.8,4c0.1,1.7-1,3.3-2.7,3.7"/>
</g>
</svg>
