<?xml version="1.0" encoding="utf-8"?>
<!-- Generator: Adobe Illustrator 24.3.0, SVG Export Plug-In . SVG Version: 6.00 Build 0)  -->
<svg version="1.1" id="レイヤー_1" xmlns="http://www.w3.org/2000/svg" xmlns:xlink="http://www.w3.org/1999/xlink" x="0px"
	 y="0px" viewBox="0 0 35 40" style="enable-background:new 0 0 35 40;" xml:space="preserve">
<style type="text/css">
	.st0{fill:#6A3906;}
	.st1{fill:none;stroke:#040000;stroke-linecap:round;stroke-linejoin:round;}
</style>
<path class="st0" d="M2.2,15.2c1.3-2,5.3,0.5,12.5,0.2c6.5-0.3,10.2-2,11.5-0.1c0.8,1.1,0.3,2.6-0.2,4.3c-0.4,1.4-2.5,7.6-8.9,9.3
	c-0.7,0.2-5,1.3-9.1-1.2c-2.4-1.4-3.7-3.4-4.1-4.1c-0.4-0.6-1.1-2-1.6-3.9C1.9,17.8,1.5,16.2,2.2,15.2z"/>
<path class="st1" d="M2.2,11.5v6c0,6.6,5.4,12,12,12s12-5.4,12-12v-6H2.2z"/>
<line class="st1" x1="2.2" y1="36.5" x2="26.2" y2="36.5"/>
<path class="st1" d="M26.2,11.5h3.3c3.1,0,4.7,1.1,4.7,5c0.2,2.1-1.2,4.1-3.3,4.5"/>
</svg>
