<?xml version="1.0" encoding="utf-8"?>
<!-- Generator: Adobe Illustrator 24.3.0, SVG Export Plug-In . SVG Version: 6.00 Build 0)  -->
<svg version="1.1" id="レイヤー_1" xmlns="http://www.w3.org/2000/svg" xmlns:xlink="http://www.w3.org/1999/xlink" x="0px"
	 y="0px" viewBox="0 0 40 40" style="enable-background:new 0 0 40 40;" xml:space="preserve">
<style type="text/css">
	.st0{fill:#FFFFFF;}
	.st1{fill:none;stroke:#040000;stroke-width:0.8075;stroke-linecap:round;stroke-linejoin:round;}
</style>
<g>
	<path class="st0" d="M7.4,10.3c-0.3,1.3-0.9,5.1,1.1,8.8c0.4,0.7,1.2,2.2,2.9,3.4c2,1.5,4.1,1.7,4.6,1.7c0.6,0,2.3,0.1,4.2-0.7
		c2.4-1,3.7-2.8,4.3-3.6c1.3-1.8,1.7-3.5,1.9-4.3c0.5-2.4,0.1-4.3-0.2-5.3"/>
	<path class="st1" d="M7.1,9.9v4.8c0,5.4,4.3,9.7,9.7,9.7s9.7-4.3,9.7-9.7V9.9H7.1z"/>
	<line class="st1" x1="7.1" y1="30.1" x2="26.5" y2="30.1"/>
	<path class="st1" d="M26.5,9.9h2.7c2.5,0,3.8,0.9,3.8,4c0.1,1.7-1,3.3-2.7,3.7"/>
</g>
</svg>
