<?xml version="1.0" encoding="utf-8"?>
<!-- Generator: Adobe Illustrator 24.3.0, SVG Export Plug-In . SVG Version: 6.00 Build 0)  -->
<svg version="1.1" id="レイヤー_1" xmlns="http://www.w3.org/2000/svg" xmlns:xlink="http://www.w3.org/1999/xlink" x="0px"
	 y="0px" viewBox="0 0 35 35" style="enable-background:new 0 0 35 35;" xml:space="preserve">
<style type="text/css">
	.st0{fill:#E9B17B;}
	.st1{fill:#EDEDEC;}
	.st2{fill:#30837D;}
</style>
<g>
	<g>
		<path class="st0" d="M18.7,10.1c0,0,0.3,0.7,0.3,0.7c0.1,0.3,0.2,0.4,0.3,0.6c0.2,0.5,0.3,1,0.3,1.1c0.1,0.4,0,0.5-0.1,1.7
			c-0.1,1.2,0,1.1-0.1,1.3c-0.1,0.6-0.3,0.9-0.3,1.6c0,0.3,0,0.6,0,0.7c0,0.6,0.2,0.7,0.2,1.2c0.1,0.6,0,1-0.1,1.4
			c-0.1,0.4-0.1,0.4-0.3,1.1c-0.1,0.5-0.1,0.7-0.2,0.8c0,0.3,0,0.6,0.1,0.8c0,0.1,0.1,0.2,0.1,0.4c0,0.1,0,0.2,0,0.3
			c0,0.4,0.3,0.5,0.3,0.7c0,0.2-0.2,0.2-0.4,0.3c0,0-0.5,0.2-0.9,0c-0.1-0.1-0.2-0.1-0.3-0.3c-0.1-0.2,0-0.3,0.1-0.5
			c0.1-0.2,0.1-0.2,0.2-0.4c0-0.2,0-0.3,0-0.4c0-0.3,0.1-0.4,0.1-0.9c0-0.3,0-0.6,0-0.8c0-0.5-0.2-0.5-0.2-1.1c0-0.2,0-0.4,0-0.5
			c0-0.3,0.1-0.6,0.1-0.8c0-0.2,0.1-0.3,0.1-0.6c0-0.1,0-0.3,0-0.3c0-0.5-0.2-0.7-0.3-1.1c-0.1-0.4,0.1-0.4,0-1.1
			c0-0.5-0.1-0.4-0.2-0.9c0-0.5,0-0.7-0.1-1.3c0-0.2-0.1-0.4-0.1-0.4c-0.1,0-0.1,0.3-0.2,0.6C17,14.5,17,14.7,16.9,15
			c-0.1,0.6-0.2,0.5-0.2,1c-0.1,0.8,0.2,1.1,0,1.7c-0.2,0.6-0.2,0.7-0.2,0.7c-0.1,0.1-0.1,0.2-0.1,0.4c0,0.1,0.1,0.2,0.2,0.4
			c0,0,0.1,0.2,0.1,0.4c0,0.2,0,0.4,0,0.6c0,0.3-0.1,0.5-0.1,0.8c0,0.4-0.1,0.6-0.1,1c0,0.3,0,0.6,0,0.8c0,0.3,0,0.5,0,0.6
			c0,0.1,0,0.2,0,0.3c0.1,0.3,0.2,0.7,0.2,0.8c0.1,0.2,0.1,0.2,0.1,0.3c-0.1,0.1-0.3,0.2-0.4,0.2c-0.1,0-0.1,0-0.3,0
			C16.1,25,16.1,25,16,25c-0.2,0-0.5-0.1-0.6-0.2c0-0.1-0.2-0.2-0.2-0.4c0-0.1,0.1-0.1,0.2-0.3c0-0.1,0-0.2,0.1-0.5
			c0-0.3,0.1-0.3,0.1-0.4c0-0.1,0-0.3,0-0.9c0-0.4-0.1-0.7-0.1-0.8c0-0.1-0.1-0.3-0.2-0.7c-0.1-0.4-0.1-0.4-0.2-0.5
			c-0.1-0.4-0.1-0.6,0-1c0-0.3,0.1-0.5,0.2-1.1c0.1-0.5,0.1-0.6,0.1-0.7c0-0.4-0.1-0.6-0.2-0.9c0,0-0.2-0.7-0.3-1.5
			c-0.1-0.5,0-0.4,0-1.4c0-1.1-0.1-1.2,0-1.6c0.2-0.5,0.4-1,0.4-1c0,0,0.1-0.1,0.2-0.3c0-0.1,0.1-0.3,0.1-0.5c0-0.1,0-0.3,0-0.4h3.2
			L18.7,10.1z"/>
		<path class="st1" d="M14.8,12.3c0.1,0.1,0.3,0,0.6,0.2c0.1,0,0.3,0.2,0.8,0.4c0.3,0.2,0.5,0.3,0.5,0.4c0.1,0.1,0.1,0.2,0.3,0.2
			c0.1,0,0.1,0.1,0.2,0.1c0.2,0,0.2-0.1,0.4-0.3c0.1-0.1,0.1-0.1,0.4-0.2c0.3-0.2,0.3-0.2,0.5-0.3c0.2-0.1,0.2-0.1,0.4-0.2
			c0.2-0.1,0.3-0.1,0.4-0.2c0,0,0.1-0.1,0.1-0.1c0-0.1,0-0.2-0.1-0.5c0,0,0-0.1,0-0.1c0,0,0-0.1-0.1-0.2c-0.1-0.1-0.1-0.1-0.1-0.2
			C19,11,19,11,19,10.9c-0.1-0.1-0.3,0.1-0.5,0.2c-0.7,0.3-1.4,0.3-1.6,0.2c-0.1,0-0.3,0-0.6-0.1c-0.5-0.2-0.7-0.4-0.9-0.3
			c0,0-0.1,0.1-0.2,0.3c-0.1,0.2-0.2,0.3-0.2,0.5C14.7,12.2,14.7,12.2,14.8,12.3z"/>
		<path class="st1" d="M17.8,13.7"/>
	</g>
	<path class="st2" d="M15.4,10.8c-0.2,0.2-0.4,0.6-0.6,1.1c-0.2,0.5-0.3,0.9-0.3,1.3c-0.3,2.5-0.6,2.9-0.5,3.8c0,0.4,0.1,0.9,0,1.2
		c-0.1,0.2-0.2,0.3-0.1,0.4c0,0.1,0.2,0,0.5,0c0,0,0.1,0,0.3,0.1c0.5,0.2,0.5,0.2,0.6,0.2c0.2,0,0.2-0.1,0.3,0
		c0.2,0,0.2,0.1,0.3,0.1c0.3,0.1,0.4-0.2,0.7-0.1c0.2,0,0.2,0.1,0.4,0.1c0.1,0,0.2,0,0.5,0c0.4-0.1,0.4-0.2,0.6-0.2
		c0.2,0,0.2,0,0.6,0.1c0.3,0,0.5,0.1,0.6,0c0,0,0,0,0.1-0.1c0.1-0.1,0.3-0.1,0.4-0.1c0.6-0.1,0.8,0,0.9-0.1c0.2-0.1-0.1-0.6-0.3-1.2
		c-0.1-0.3-0.1-0.4-0.1-1.4c-0.1-1.1-0.1-1.6-0.3-2.4c-0.2-0.9-0.4-1.5-0.5-1.6c-0.2-0.5-0.4-0.9-0.6-1.3c-0.2,0.1-1,0.5-2.1,0.4
		C16.2,11.2,15.7,10.9,15.4,10.8z"/>
</g>
<g>
	<g>
		<path class="st0" d="M43.5,23.5c0,0,0.3,0.7,0.3,0.7c0.1,0.3,0.2,0.4,0.3,0.6c0.2,0.6,0.3,1,0.3,1.1c0.1,0.4,0,0.5-0.1,1.7
			c-0.1,1.2,0,1.1-0.1,1.3c-0.1,0.6-0.3,0.9-0.3,1.6c0,0.4,0,0.6,0,0.7c0,0.6,0.2,0.7,0.2,1.2c0.1,0.6,0,1.1-0.1,1.4
			c-0.1,0.4-0.2,0.4-0.3,1.1c-0.1,0.5-0.2,0.7-0.2,0.8c0,0.3,0,0.6,0.1,0.8c0,0.1,0.1,0.2,0.1,0.4c0,0.1,0,0.2,0,0.3
			c0,0.4,0.3,0.5,0.3,0.7c0,0.2-0.2,0.2-0.4,0.3c0,0-0.5,0.2-0.9,0c-0.1-0.1-0.2-0.1-0.3-0.3c-0.1-0.2,0-0.3,0.1-0.5
			c0.1-0.2,0.1-0.2,0.2-0.4c0.1-0.2,0-0.3,0-0.4c0-0.3,0.1-0.4,0.1-0.9c0-0.3,0-0.6,0-0.8c0-0.5-0.2-0.5-0.2-1.1c0-0.2,0-0.4,0-0.6
			c0-0.3,0.1-0.6,0.1-0.8c0-0.2,0.1-0.3,0.1-0.6c0-0.1,0-0.3,0-0.3c0-0.5-0.2-0.7-0.3-1.1c-0.1-0.4,0.1-0.4,0-1.1
			c0-0.5-0.1-0.4-0.2-0.9c0-0.5,0-0.7-0.1-1.4c0-0.2-0.1-0.4-0.1-0.4c-0.1,0-0.1,0.3-0.2,0.6c-0.1,0.4-0.1,0.6-0.1,0.9
			c-0.1,0.6-0.2,0.5-0.2,1c-0.1,0.8,0.2,1.1,0,1.7c-0.2,0.6-0.2,0.7-0.2,0.7c-0.1,0.1-0.1,0.2-0.1,0.4c0,0.1,0.1,0.2,0.2,0.4
			c0,0,0.1,0.2,0.1,0.4c0,0.2,0,0.4,0,0.6c0,0.3-0.1,0.5-0.1,0.8c0,0.4-0.1,0.6-0.1,1c0,0.3,0,0.6,0,0.8c0,0.3,0,0.5,0,0.6
			c0,0.1,0,0.2,0,0.3c0.1,0.3,0.2,0.7,0.2,0.8c0.1,0.2,0.1,0.2,0.1,0.3c-0.1,0.1-0.3,0.2-0.4,0.2c-0.1,0-0.1,0-0.3,0
			c-0.2,0-0.2,0.1-0.3,0.1c-0.2,0-0.5-0.1-0.6-0.2c0-0.1-0.2-0.2-0.2-0.4c0-0.1,0.1-0.1,0.2-0.3c0.1-0.1,0-0.2,0.1-0.5
			c0-0.3,0.1-0.3,0.1-0.4c0-0.1,0-0.3,0-0.9c0-0.4-0.1-0.7-0.1-0.8c0-0.1-0.1-0.3-0.2-0.7c-0.1-0.4-0.1-0.4-0.2-0.5
			c-0.1-0.4-0.1-0.6,0-1c0-0.3,0.1-0.5,0.2-1.1c0.1-0.5,0.1-0.6,0.1-0.7c0-0.4-0.1-0.6-0.2-0.9c0,0-0.2-0.8-0.3-1.5
			c-0.1-0.5,0-0.4,0-1.4c0-1.1-0.1-1.2,0-1.6c0.2-0.5,0.5-1,0.5-1c0,0,0.1-0.1,0.2-0.3c0-0.1,0.1-0.3,0.2-0.5c0-0.1,0-0.3,0-0.5h3.2
			L43.5,23.5z"/>
		<path class="st1" d="M39.5,25.6c0.1,0.1,0.3,0,0.6,0.2c0.1,0,0.3,0.2,0.8,0.4c0.3,0.2,0.5,0.3,0.5,0.4c0.1,0.1,0.2,0.2,0.3,0.2
			c0.1,0,0.2,0.1,0.2,0.1c0.2,0,0.2-0.1,0.4-0.3c0.1-0.1,0.1-0.1,0.5-0.2c0.3-0.2,0.3-0.2,0.5-0.3c0.2-0.1,0.2-0.1,0.4-0.2
			c0.2-0.1,0.3-0.1,0.4-0.2c0,0,0.1-0.1,0.1-0.1c0-0.1,0-0.2-0.1-0.5c0,0,0-0.1,0-0.1c0,0,0-0.1-0.1-0.2c-0.1-0.1-0.1-0.1-0.1-0.2
			c-0.1-0.2-0.1-0.2-0.1-0.2c-0.1-0.1-0.4,0.1-0.5,0.2c-0.7,0.3-1.4,0.3-1.6,0.2c-0.1,0-0.3,0-0.6-0.1c-0.5-0.2-0.7-0.4-0.9-0.3
			c0,0-0.1,0.1-0.2,0.3c-0.1,0.2-0.2,0.3-0.2,0.5C39.5,25.6,39.5,25.6,39.5,25.6z"/>
		<path class="st1" d="M42.6,27.1"/>
	</g>
	<path class="st2" d="M40.2,24.1c-0.3,0.3-0.8,0.8-1,1.5c-0.2,0.7-0.1,1.1-0.1,2.1c0,0.4,0,1.2-0.1,2.8c-0.1,1.8-0.1,2.7-0.2,3.1
		c-0.2,1-0.1,2-0.3,3c0,0,0,0.1,0,0.2c0,0,0,0,0,0c0.1,0,0.2-0.1,0.4,0c0,0,0.1,0.1,0.3,0.2c0.5,0.3,0.5,0.4,0.6,0.3
		c0.2,0,0.2-0.1,0.3-0.1c0.2,0,0.2,0.2,0.3,0.2c0.3,0.1,0.4-0.3,0.7-0.2c0.2,0,0.2,0.1,0.4,0.2c0.1,0,0.2,0,0.5-0.1
		c0.4-0.1,0.4-0.2,0.6-0.3c0.2,0,0.2,0.1,0.6,0.2c0.3,0.1,0.5,0.1,0.6,0c0,0,0-0.1,0.1-0.1c0.1-0.2,0.3-0.2,0.4-0.2
		c0.4-0.1,0.9-0.1,0.9-0.1l0,0c0,0,0-1.5-0.1-2.6c-0.1-2-0.1-3-0.1-3.7c0-0.4-0.1-1.3-0.4-3.1c-0.1-0.8-0.2-1.4-0.5-2.2
		c-0.2-0.5-0.5-0.8-0.6-1c-0.4,0.2-1.1,0.4-2,0.3C41.1,24.5,40.5,24.3,40.2,24.1z"/>
</g>
<g>
	<g>
		<path class="st0" d="M42.3,10c0,0,0.3,0.7,0.3,0.7c0.1,0.3,0.2,0.4,0.3,0.6c0.2,0.5,0.3,1,0.3,1.1c0.1,0.4,0,0.5-0.1,1.7
			c-0.1,1.2,0,1.1-0.1,1.3c-0.1,0.6-0.3,0.9-0.3,1.6c0,0.3,0,0.6,0,0.7c0,0.6,0.2,0.7,0.2,1.2c0.1,0.6,0,1-0.1,1.4
			c-0.1,0.4-0.1,0.4-0.3,1.1c-0.1,0.5-0.1,0.7-0.2,0.8c0,0.3,0,0.6,0.1,0.8c0,0.1,0.1,0.2,0.1,0.4c0,0.1,0,0.2,0,0.3
			c0,0.4,0.3,0.5,0.3,0.7c0,0.2-0.2,0.2-0.4,0.3c0,0-0.5,0.2-0.9,0c-0.1-0.1-0.2-0.1-0.3-0.3c-0.1-0.2,0-0.3,0.1-0.5
			c0.1-0.2,0.1-0.2,0.2-0.4c0-0.2,0-0.3,0-0.4c0-0.3,0.1-0.4,0.1-0.9c0-0.3,0-0.6,0-0.8c0-0.5-0.2-0.5-0.2-1.1c0-0.2,0-0.4,0-0.5
			c0-0.3,0.1-0.6,0.1-0.8c0-0.2,0.1-0.3,0.1-0.6c0-0.1,0-0.3,0-0.3c0-0.5-0.2-0.7-0.3-1.1c-0.1-0.4,0.1-0.4,0-1.1
			c0-0.5-0.1-0.4-0.2-0.9c0-0.5,0-0.7-0.1-1.3c0-0.2-0.1-0.4-0.1-0.4c-0.1,0-0.1,0.3-0.2,0.6c-0.1,0.4-0.1,0.6-0.1,0.9
			c-0.1,0.6-0.2,0.5-0.2,1c-0.1,0.8,0.2,1.1,0,1.7c-0.2,0.6-0.2,0.7-0.2,0.7c-0.1,0.1-0.1,0.2-0.1,0.4c0,0.1,0.1,0.2,0.2,0.4
			c0,0,0.1,0.2,0.1,0.4c0,0.2,0,0.4,0,0.6c0,0.3-0.1,0.5-0.1,0.8c0,0.4-0.1,0.6-0.1,1c0,0.3,0,0.6,0,0.8c0,0.3,0,0.5,0,0.6
			c0,0.1,0,0.2,0,0.3c0.1,0.3,0.2,0.7,0.2,0.8c0.1,0.2,0.1,0.2,0.1,0.3c-0.1,0.1-0.3,0.2-0.4,0.2c-0.1,0-0.1,0-0.3,0
			c-0.2,0-0.2,0.1-0.3,0.1c-0.2,0-0.5-0.1-0.6-0.2c0-0.1-0.2-0.2-0.2-0.4c0-0.1,0.1-0.1,0.2-0.3c0-0.1,0-0.2,0.1-0.5
			c0-0.3,0.1-0.3,0.1-0.4c0-0.1,0-0.3,0-0.9c0-0.4-0.1-0.7-0.1-0.8c0-0.1-0.1-0.3-0.2-0.7c-0.1-0.4-0.1-0.4-0.2-0.5
			c-0.1-0.4-0.1-0.6,0-1c0-0.3,0.1-0.5,0.2-1.1c0.1-0.5,0.1-0.6,0.1-0.7c0-0.4-0.1-0.6-0.2-0.9c0,0-0.2-0.7-0.3-1.5
			c-0.1-0.5,0-0.4,0-1.4c0-1.1-0.1-1.2,0-1.6c0.2-0.5,0.4-1,0.4-1c0,0,0.1-0.1,0.2-0.3c0-0.1,0.1-0.3,0.1-0.5c0-0.1,0-0.3,0-0.4h3.2
			L42.3,10z"/>
		<path class="st1" d="M38.4,12.1c0.1,0.1,0.3,0,0.6,0.2c0.1,0,0.3,0.2,0.8,0.4c0.3,0.2,0.5,0.3,0.5,0.4c0.1,0.1,0.1,0.2,0.3,0.2
			c0.1,0,0.1,0.1,0.2,0.1c0.2,0,0.2-0.1,0.4-0.3c0.1-0.1,0.1-0.1,0.4-0.2c0.3-0.2,0.3-0.2,0.5-0.3c0.2-0.1,0.2-0.1,0.4-0.2
			c0.2-0.1,0.3-0.1,0.4-0.2c0,0,0.1-0.1,0.1-0.1c0-0.1,0-0.2-0.1-0.5c0,0,0-0.1,0-0.1c0,0,0-0.1-0.1-0.2c-0.1-0.1-0.1-0.1-0.1-0.2
			c-0.1-0.2-0.1-0.2-0.1-0.2c-0.1-0.1-0.3,0.1-0.5,0.2c-0.7,0.3-1.4,0.3-1.6,0.2c-0.1,0-0.3,0-0.6-0.1c-0.5-0.2-0.7-0.4-0.9-0.3
			c0,0-0.1,0.1-0.2,0.3c-0.1,0.2-0.2,0.3-0.2,0.5C38.4,12.1,38.4,12.1,38.4,12.1z"/>
		<path class="st1" d="M41.4,13.5"/>
	</g>
	<path class="st2" d="M39.1,10.7c-0.2,0.1-0.4,0.4-0.6,0.7c-0.2,0.3-0.3,0.6-0.3,0.8c-0.3,1.6-0.6,1.8-0.5,2.4c0,0.2,0.1,0.6,0,0.8
		c-0.1,0.1-0.2,0.2-0.1,0.3c0,0.1,0.2,0,0.5,0c0,0,0.1,0,0.3,0.1c0.5,0.1,0.5,0.1,0.6,0.1c0.2,0,0.2,0,0.3,0c0.2,0,0.2,0.1,0.3,0.1
		c0.3,0.1,0.4-0.1,0.7-0.1c0.2,0,0.2,0.1,0.4,0.1c0.1,0,0.2,0,0.5,0c0.4-0.1,0.4-0.1,0.6-0.1c0.2,0,0.2,0,0.6,0.1c0.3,0,0.5,0,0.6,0
		c0,0,0,0,0.1-0.1c0.1-0.1,0.3-0.1,0.4-0.1c0.6,0,0.8,0,0.9,0c0.2-0.1-0.1-0.4-0.3-0.7c-0.1-0.2-0.1-0.2-0.1-0.8
		c-0.1-0.7-0.1-1-0.3-1.5c-0.2-0.5-0.4-0.9-0.5-1c-0.2-0.3-0.4-0.6-0.6-0.8c-0.2,0.1-1,0.3-2.1,0.3C39.8,10.9,39.3,10.7,39.1,10.7z"
		/>
</g>
<g>
	<g>
		<path class="st0" d="M50.4,14.6c0,0,0.3,0.7,0.3,0.7c0.1,0.3,0.2,0.4,0.3,0.6c0.2,0.5,0.3,1,0.3,1.1c0.1,0.4,0,0.5-0.1,1.7
			c-0.1,1.2,0,1.1-0.1,1.3c-0.1,0.6-0.3,0.9-0.3,1.6c0,0.3,0,0.6,0,0.7c0,0.6,0.2,0.7,0.2,1.2c0.1,0.6,0,1-0.1,1.4
			c-0.1,0.4-0.1,0.4-0.3,1.1c-0.1,0.5-0.1,0.7-0.2,0.8c0,0.3,0,0.6,0.1,0.8c0,0.1,0.1,0.2,0.1,0.4c0,0.1,0,0.2,0,0.3
			c0,0.4,0.3,0.5,0.3,0.7c0,0.2-0.2,0.2-0.4,0.3c0,0-0.5,0.2-0.9,0c-0.1-0.1-0.2-0.1-0.3-0.3c-0.1-0.2,0-0.3,0.1-0.5
			c0.1-0.2,0.1-0.2,0.2-0.4c0-0.2,0-0.3,0-0.4c0-0.3,0.1-0.4,0.1-0.9c0-0.3,0-0.6,0-0.8c0-0.5-0.2-0.5-0.2-1.1c0-0.2,0-0.4,0-0.5
			c0-0.3,0.1-0.6,0.1-0.8c0-0.2,0.1-0.3,0.1-0.6c0-0.1,0-0.3,0-0.3c0-0.5-0.2-0.7-0.3-1.1c-0.1-0.4,0.1-0.4,0-1.1
			c0-0.5-0.1-0.4-0.2-0.9c0-0.5,0-0.7-0.1-1.3c0-0.2-0.1-0.4-0.1-0.4c-0.1,0-0.1,0.3-0.2,0.6c-0.1,0.4-0.1,0.6-0.1,0.9
			c-0.1,0.6-0.2,0.5-0.2,1c-0.1,0.8,0.2,1.1,0,1.7c-0.2,0.6-0.2,0.7-0.2,0.7c-0.1,0.1-0.1,0.2-0.1,0.4c0,0.1,0.1,0.2,0.2,0.4
			c0,0,0.1,0.2,0.1,0.4c0,0.2,0,0.4,0,0.6c0,0.3-0.1,0.5-0.1,0.8c0,0.4-0.1,0.6-0.1,1c0,0.3,0,0.6,0,0.8c0,0.3,0,0.5,0,0.6
			c0,0.1,0,0.2,0,0.3c0.1,0.3,0.2,0.7,0.2,0.8c0.1,0.2,0.1,0.2,0.1,0.3c-0.1,0.1-0.3,0.2-0.4,0.2c-0.1,0-0.1,0-0.3,0
			c-0.2,0-0.2,0.1-0.3,0.1c-0.2,0-0.5-0.1-0.6-0.2c0-0.1-0.2-0.2-0.2-0.4c0-0.1,0.1-0.1,0.2-0.3c0-0.1,0-0.2,0.1-0.5
			c0-0.3,0.1-0.3,0.1-0.4c0-0.1,0-0.3,0-0.9c0-0.4-0.1-0.7-0.1-0.8c0-0.1-0.1-0.3-0.2-0.7c-0.1-0.4-0.1-0.4-0.2-0.5
			c-0.1-0.4-0.1-0.6,0-1c0-0.3,0.1-0.5,0.2-1.1C47,22.2,47,22.1,47,22c0-0.4-0.1-0.6-0.2-0.9c0,0-0.2-0.7-0.3-1.5
			c-0.1-0.5,0-0.4,0-1.4c0-1.1-0.1-1.2,0-1.6c0.2-0.5,0.4-1,0.4-1c0,0,0.1-0.1,0.2-0.3c0-0.1,0.1-0.3,0.2-0.5c0-0.1,0-0.3,0-0.4h3.2
			L50.4,14.6z"/>
		<path class="st1" d="M46.5,16.7c0.1,0.1,0.3,0,0.6,0.2c0.1,0,0.3,0.2,0.8,0.4c0.3,0.2,0.5,0.3,0.5,0.4c0.1,0.1,0.1,0.2,0.3,0.2
			c0.1,0,0.1,0.1,0.2,0.1c0.2,0,0.2-0.1,0.4-0.3c0.1-0.1,0.1-0.1,0.4-0.2c0.3-0.2,0.3-0.2,0.5-0.3c0.2-0.1,0.2-0.1,0.4-0.2
			c0.2-0.1,0.3-0.1,0.4-0.2c0,0,0.1-0.1,0.1-0.1c0-0.1,0-0.2-0.1-0.5c0,0,0-0.1,0-0.1c0,0,0-0.1-0.1-0.2c-0.1-0.1-0.1-0.1-0.1-0.2
			c-0.1-0.2-0.1-0.2-0.1-0.2c-0.1-0.1-0.3,0.1-0.5,0.2c-0.7,0.3-1.4,0.3-1.6,0.2c-0.1,0-0.3,0-0.6-0.1c-0.5-0.2-0.7-0.4-0.9-0.3
			c0,0-0.1,0.1-0.2,0.3c-0.1,0.2-0.2,0.3-0.2,0.5C46.5,16.7,46.5,16.7,46.5,16.7z"/>
		<path class="st1" d="M49.5,18.1"/>
	</g>
	<path class="st2" d="M47.1,15.2c-0.2,0.3-0.4,0.7-0.6,1.3c-0.2,0.7-0.3,1.2-0.3,1.7c-0.3,3.1-0.6,3.6-0.5,4.8c0,0.4,0.1,1.1,0,1.5
		c-0.1,0.2-0.2,0.4-0.1,0.5c0,0.1,0.2,0,0.5,0c0,0,0.1,0,0.3,0.1c0.5,0.2,0.5,0.3,0.6,0.3c0.2,0,0.2-0.1,0.3-0.1
		c0.2,0,0.2,0.1,0.3,0.2c0.3,0.1,0.4-0.2,0.7-0.2c0.2,0,0.2,0.1,0.4,0.1c0.1,0,0.2,0,0.5-0.1c0.4-0.1,0.4-0.2,0.6-0.2
		c0.2,0,0.2,0.1,0.6,0.1c0.3,0.1,0.5,0.1,0.6,0c0,0,0-0.1,0.1-0.1c0.1-0.1,0.3-0.1,0.4-0.2c0.6-0.1,0.8,0,0.9-0.1
		c0.2-0.2-0.1-0.7-0.3-1.5c-0.1-0.4-0.1-0.5-0.1-1.7c-0.1-1.3-0.1-2.1-0.3-3c-0.2-1.1-0.4-1.8-0.5-2c-0.2-0.6-0.4-1.2-0.6-1.6
		c-0.2,0.1-1,0.7-2.1,0.5C47.9,15.7,47.4,15.4,47.1,15.2z"/>
</g>
</svg>
