<?xml version="1.0" encoding="utf-8"?>
<!-- Generator: Adobe Illustrator 24.3.0, SVG Export Plug-In . SVG Version: 6.00 Build 0)  -->
<svg version="1.1" id="レイヤー_1" xmlns="http://www.w3.org/2000/svg" xmlns:xlink="http://www.w3.org/1999/xlink" x="0px"
	 y="0px" viewBox="0 0 35 35" style="enable-background:new 0 0 35 35;" xml:space="preserve">
<style type="text/css">
	.st0{fill:#E9B17B;}
	.st1{fill:#EDEDEC;}
</style>
<g>
	<path class="st0" d="M-76.2-41c0,0,0.6,1.8,0.6,1.8c0.3,0.8,0.5,1,0.7,1.6c0.5,1.3,0.7,2.4,0.7,2.8c0.1,0.9,0,1.2-0.1,4.1
		c-0.2,2.8-0.1,2.6-0.2,3.1c-0.3,1.6-0.6,2.1-0.8,3.8c-0.1,0.8,0,1.5,0,1.7c0.1,1.4,0.4,1.7,0.5,2.8c0.2,1.4-0.1,2.5-0.3,3.4
		c-0.2,1-0.4,1-0.8,2.8c-0.3,1.2-0.4,1.7-0.4,2c0,0.7-0.1,1.4,0.1,2c0,0.1,0.2,0.5,0.2,0.9c0,0.4,0,0.4,0,0.7
		c0.1,0.9,0.7,1.2,0.6,1.7c-0.1,0.4-0.5,0.6-0.9,0.7c-0.1,0-1.2,0.4-2.2-0.1c-0.2-0.1-0.5-0.3-0.7-0.6c-0.2-0.4,0-0.8,0.1-1.2
		c0.2-0.4,0.3-0.5,0.4-0.9c0.1-0.4,0.1-0.7,0.1-1c0-0.8,0.1-0.9,0.2-2.1c0.1-0.8,0.1-1.4,0-2c-0.1-1.1-0.4-1.3-0.5-2.6
		c0-0.5,0-1,0-1.3c0-0.8,0.1-1.5,0.2-1.9c0.1-0.5,0.1-0.8,0.2-1.4c0-0.3,0-0.6,0-0.8c0-1.1-0.5-1.6-0.8-2.7c-0.2-1,0.2-1,0-2.7
		c-0.1-1.2-0.3-1-0.4-2.1c-0.1-1.2,0.1-1.8-0.1-3.3c-0.1-0.4-0.1-1-0.3-1c-0.1,0-0.3,0.7-0.4,1.4c-0.2,1-0.2,1.6-0.3,2.1
		c-0.2,1.3-0.4,1.3-0.6,2.3c-0.3,2,0.5,2.6,0,4c-0.4,1.5-0.5,1.6-0.5,1.6c-0.1,0.4-0.3,0.5-0.2,0.9c0,0.4,0.2,0.5,0.4,1
		c0,0,0.2,0.5,0.3,0.9c0.1,0.5,0.1,0.9,0,1.4c-0.1,0.8-0.1,1.2-0.2,2c-0.1,0.9-0.2,1.6-0.2,2.5c0,0.8,0,1.5,0,2
		c0,0.8,0.1,1.2,0.1,1.5c0,0.4,0.1,0.5,0.1,0.8c0.1,0.8,0.4,1.7,0.6,2c0.2,0.4,0.2,0.6,0.1,0.8C-80.7-5.1-81.3-5-81.5-5
		c-0.2,0-0.3,0-0.7,0c-0.4,0-0.5,0.1-0.7,0.2C-83.4-4.7-84-5-84.3-5.4c-0.1-0.1-0.4-0.5-0.4-0.9c0-0.3,0.2-0.3,0.4-0.8
		c0.1-0.3,0.1-0.4,0.2-1.1c0.1-0.7,0.1-0.7,0.2-1c0.1-0.4,0.1-0.7-0.1-2.2c-0.1-1.1-0.2-1.6-0.2-1.9c-0.1-0.3-0.2-0.8-0.5-1.7
		c-0.3-1.1-0.3-1-0.4-1.3c-0.2-0.9-0.2-1.6-0.1-2.4c0-0.6,0.2-1.3,0.4-2.7c0.2-1.3,0.3-1.4,0.3-1.8c0-0.9-0.2-1.4-0.4-2.3
		c0,0-0.5-1.8-0.7-3.7c-0.1-1.1,0-0.9,0-3.3c-0.1-2.7-0.3-3,0-3.9c0.4-1.3,1.1-2.5,1.1-2.5c0.1-0.1,0.3-0.4,0.4-0.8
		c0.1-0.3,0.3-0.6,0.4-1.1c0-0.3,0.1-0.6,0-1.1h7.7L-76.2-41z"/>
	<path class="st1" d="M-85.8-35.8c0.2,0.3,0.6,0.1,1.5,0.4c0.3,0.1,0.8,0.4,1.9,1c0.8,0.5,1.2,0.7,1.3,0.9c0.1,0.1,0.4,0.4,0.8,0.6
		c0.2,0.1,0.4,0.2,0.6,0.2c0.4,0,0.5-0.3,1-0.7c0.3-0.3,0.3-0.1,1.1-0.6c0.7-0.4,0.7-0.5,1.3-0.8c0.4-0.2,0.6-0.3,0.9-0.4
		c0.4-0.1,0.7-0.2,0.9-0.4c0,0,0.1-0.2,0.2-0.3c0.1-0.3-0.1-0.5-0.4-1.2c0-0.1,0-0.1-0.1-0.3c0-0.1-0.1-0.3-0.2-0.4
		c-0.1-0.3-0.2-0.3-0.3-0.6c-0.2-0.4-0.1-0.4-0.2-0.5c-0.3-0.2-0.8,0.2-1.2,0.4c-1.6,0.8-3.3,0.7-4,0.6c-0.3,0-0.8-0.1-1.5-0.3
		c-1.2-0.4-1.7-0.9-2.2-0.7c-0.1,0-0.2,0.3-0.5,0.8c-0.2,0.4-0.4,0.8-0.6,1.2C-85.8-36-85.8-35.9-85.8-35.8z"/>
	<path class="st1" d="M-78.4-32.4"/>
</g>
<g>
	<path class="st0" d="M18.8,10.2c0,0,0.3,0.7,0.3,0.7c0.1,0.3,0.2,0.4,0.3,0.6c0.2,0.6,0.3,1,0.3,1.1c0.1,0.4,0,0.5-0.1,1.7
		c-0.1,1.2,0,1.1-0.1,1.3c-0.1,0.6-0.3,0.9-0.3,1.6c0,0.4,0,0.6,0,0.7c0,0.6,0.2,0.7,0.2,1.2c0.1,0.6,0,1-0.1,1.4
		c-0.1,0.4-0.2,0.4-0.3,1.1c-0.1,0.5-0.2,0.7-0.2,0.8c0,0.3,0,0.6,0.1,0.8c0,0.1,0.1,0.2,0.1,0.4c0,0.1,0,0.2,0,0.3
		c0,0.4,0.3,0.5,0.3,0.7c0,0.2-0.2,0.2-0.4,0.3c0,0-0.5,0.2-0.9,0c-0.1-0.1-0.2-0.1-0.3-0.3c-0.1-0.2,0-0.3,0.1-0.5
		c0.1-0.2,0.1-0.2,0.2-0.4c0.1-0.2,0-0.3,0-0.4c0-0.3,0.1-0.4,0.1-0.9c0-0.3,0-0.6,0-0.8c0-0.5-0.2-0.5-0.2-1.1c0-0.2,0-0.4,0-0.5
		c0-0.3,0.1-0.6,0.1-0.8c0-0.2,0.1-0.3,0.1-0.6c0-0.1,0-0.3,0-0.3c0-0.5-0.2-0.7-0.3-1.1c-0.1-0.4,0.1-0.4,0-1.1
		c0-0.5-0.1-0.4-0.2-0.9c0-0.5,0-0.7-0.1-1.4c0-0.2-0.1-0.4-0.1-0.4c-0.1,0-0.1,0.3-0.2,0.6C17,14.6,17,14.8,17,15
		c-0.1,0.6-0.2,0.5-0.2,1c-0.1,0.8,0.2,1.1,0,1.7c-0.2,0.6-0.2,0.7-0.2,0.7c-0.1,0.1-0.1,0.2-0.1,0.4c0,0.1,0.1,0.2,0.2,0.4
		c0,0,0.1,0.2,0.1,0.4c0,0.2,0,0.4,0,0.6c0,0.3-0.1,0.5-0.1,0.8c0,0.4-0.1,0.6-0.1,1c0,0.3,0,0.6,0,0.8c0,0.3,0,0.5,0,0.6
		c0,0.1,0,0.2,0,0.3c0.1,0.3,0.2,0.7,0.2,0.8c0.1,0.2,0.1,0.2,0.1,0.3c-0.1,0.1-0.3,0.2-0.4,0.2c-0.1,0-0.1,0-0.3,0
		c-0.2,0-0.2,0.1-0.3,0.1c-0.2,0-0.5-0.1-0.6-0.2c0-0.1-0.2-0.2-0.2-0.4c0-0.1,0.1-0.1,0.2-0.3c0-0.1,0-0.2,0.1-0.5
		c0-0.3,0.1-0.3,0.1-0.4c0-0.1,0-0.3,0-0.9c0-0.4-0.1-0.7-0.1-0.8c0-0.1-0.1-0.3-0.2-0.7c-0.1-0.4-0.1-0.4-0.2-0.5
		c-0.1-0.4-0.1-0.6,0-1c0-0.3,0.1-0.5,0.2-1.1c0.1-0.5,0.1-0.6,0.1-0.7c0-0.4-0.1-0.6-0.2-0.9c0,0-0.2-0.7-0.3-1.5
		c-0.1-0.5,0-0.4,0-1.4c0-1.1-0.1-1.2,0-1.6c0.2-0.5,0.5-1,0.5-1c0,0,0.1-0.1,0.2-0.3c0-0.1,0.1-0.3,0.2-0.5c0-0.1,0-0.3,0-0.5h3.2
		L18.8,10.2z"/>
	<path class="st1" d="M14.8,12.3c0.1,0.1,0.3,0,0.6,0.2c0.1,0,0.3,0.2,0.8,0.4c0.3,0.2,0.5,0.3,0.5,0.4c0.1,0.1,0.2,0.2,0.3,0.2
		c0.1,0,0.2,0.1,0.2,0.1c0.2,0,0.2-0.1,0.4-0.3c0.1-0.1,0.1-0.1,0.5-0.2c0.3-0.2,0.3-0.2,0.5-0.3c0.2-0.1,0.2-0.1,0.4-0.2
		c0.2-0.1,0.3-0.1,0.4-0.2c0,0,0.1-0.1,0.1-0.1c0-0.1,0-0.2-0.1-0.5c0,0,0-0.1,0-0.1c0,0,0-0.1-0.1-0.2c-0.1-0.1-0.1-0.1-0.1-0.2
		C19.1,11,19.1,11,19,11c-0.1-0.1-0.4,0.1-0.5,0.2c-0.7,0.3-1.4,0.3-1.6,0.2c-0.1,0-0.3,0-0.6-0.1c-0.5-0.2-0.7-0.4-0.9-0.3
		c0,0-0.1,0.1-0.2,0.3c-0.1,0.2-0.2,0.3-0.2,0.5C14.8,12.2,14.8,12.3,14.8,12.3z"/>
	<path class="st1" d="M17.8,13.7"/>
</g>
</svg>
