<?xml version="1.0" encoding="utf-8"?>
<!-- Generator: Adobe Illustrator 24.3.0, SVG Export Plug-In . SVG Version: 6.00 Build 0)  -->
<svg version="1.1" id="レイヤー_1" xmlns="http://www.w3.org/2000/svg" xmlns:xlink="http://www.w3.org/1999/xlink" x="0px"
	 y="0px" viewBox="0 0 35 35" style="enable-background:new 0 0 35 35;" xml:space="preserve">
<style type="text/css">
	.st0{fill:#E9B17B;}
	.st1{fill:#EDEDEC;}
	.st2{fill:#30837D;}
</style>
<g>
	<g>
		<path class="st0" d="M42.3,10c0,0,0.3,0.7,0.3,0.7c0.1,0.3,0.2,0.4,0.3,0.6c0.2,0.5,0.3,1,0.3,1.1c0.1,0.4,0,0.5-0.1,1.7
			c-0.1,1.2,0,1.1-0.1,1.3c-0.1,0.6-0.3,0.9-0.3,1.6c0,0.3,0,0.6,0,0.7c0,0.6,0.2,0.7,0.2,1.2c0.1,0.6,0,1-0.1,1.4
			c-0.1,0.4-0.1,0.4-0.3,1.1c-0.1,0.5-0.1,0.7-0.2,0.8c0,0.3,0,0.6,0.1,0.8c0,0.1,0.1,0.2,0.1,0.4c0,0.1,0,0.2,0,0.3
			c0,0.4,0.3,0.5,0.3,0.7c0,0.2-0.2,0.2-0.4,0.3c0,0-0.5,0.2-0.9,0c-0.1-0.1-0.2-0.1-0.3-0.3c-0.1-0.2,0-0.3,0.1-0.5
			c0.1-0.2,0.1-0.2,0.2-0.4c0-0.2,0-0.3,0-0.4c0-0.3,0.1-0.4,0.1-0.9c0-0.3,0-0.6,0-0.8c0-0.5-0.2-0.5-0.2-1.1c0-0.2,0-0.4,0-0.5
			c0-0.3,0.1-0.6,0.1-0.8c0-0.2,0.1-0.3,0.1-0.6c0-0.1,0-0.3,0-0.3c0-0.5-0.2-0.7-0.3-1.1c-0.1-0.4,0.1-0.4,0-1.1
			c0-0.5-0.1-0.4-0.2-0.9c0-0.5,0-0.7-0.1-1.3c0-0.2-0.1-0.4-0.1-0.4c-0.1,0-0.1,0.3-0.2,0.6c-0.1,0.4-0.1,0.6-0.1,0.9
			c-0.1,0.6-0.2,0.5-0.2,1c-0.1,0.8,0.2,1.1,0,1.7c-0.2,0.6-0.2,0.7-0.2,0.7c-0.1,0.1-0.1,0.2-0.1,0.4c0,0.1,0.1,0.2,0.2,0.4
			c0,0,0.1,0.2,0.1,0.4c0,0.2,0,0.4,0,0.6c0,0.3-0.1,0.5-0.1,0.8c0,0.4-0.1,0.6-0.1,1c0,0.3,0,0.6,0,0.8c0,0.3,0,0.5,0,0.6
			c0,0.1,0,0.2,0,0.3c0.1,0.3,0.2,0.7,0.2,0.8c0.1,0.2,0.1,0.2,0.1,0.3c-0.1,0.1-0.3,0.2-0.4,0.2c-0.1,0-0.1,0-0.3,0
			c-0.2,0-0.2,0.1-0.3,0.1c-0.2,0-0.5-0.1-0.6-0.2c0-0.1-0.2-0.2-0.2-0.4c0-0.1,0.1-0.1,0.2-0.3c0-0.1,0-0.2,0.1-0.5
			c0-0.3,0.1-0.3,0.1-0.4c0-0.1,0-0.3,0-0.9c0-0.4-0.1-0.7-0.1-0.8c0-0.1-0.1-0.3-0.2-0.7c-0.1-0.4-0.1-0.4-0.2-0.5
			c-0.1-0.4-0.1-0.6,0-1c0-0.3,0.1-0.5,0.2-1.1c0.1-0.5,0.1-0.6,0.1-0.7c0-0.4-0.1-0.6-0.2-0.9c0,0-0.2-0.7-0.3-1.5
			c-0.1-0.5,0-0.4,0-1.4c0-1.1-0.1-1.2,0-1.6c0.2-0.5,0.4-1,0.4-1c0,0,0.1-0.1,0.2-0.3c0-0.1,0.1-0.3,0.1-0.5c0-0.1,0-0.3,0-0.4h3.2
			L42.3,10z"/>
		<path class="st1" d="M38.4,12.1c0.1,0.1,0.3,0,0.6,0.2c0.1,0,0.3,0.2,0.8,0.4c0.3,0.2,0.5,0.3,0.5,0.4c0.1,0.1,0.1,0.2,0.3,0.2
			c0.1,0,0.1,0.1,0.2,0.1c0.2,0,0.2-0.1,0.4-0.3c0.1-0.1,0.1-0.1,0.4-0.2c0.3-0.2,0.3-0.2,0.5-0.3c0.2-0.1,0.2-0.1,0.4-0.2
			c0.2-0.1,0.3-0.1,0.4-0.2c0,0,0.1-0.1,0.1-0.1c0-0.1,0-0.2-0.1-0.5c0,0,0-0.1,0-0.1c0,0,0-0.1-0.1-0.2c-0.1-0.1-0.1-0.1-0.1-0.2
			c-0.1-0.2-0.1-0.2-0.1-0.2c-0.1-0.1-0.3,0.1-0.5,0.2c-0.7,0.3-1.4,0.3-1.6,0.2c-0.1,0-0.3,0-0.6-0.1c-0.5-0.2-0.7-0.4-0.9-0.3
			c0,0-0.1,0.1-0.2,0.3c-0.1,0.2-0.2,0.3-0.2,0.5C38.4,12.1,38.4,12.1,38.4,12.1z"/>
		<path class="st1" d="M41.4,13.5"/>
	</g>
	<path class="st2" d="M39.1,10.7c-0.2,0.1-0.4,0.4-0.6,0.7c-0.2,0.3-0.3,0.6-0.3,0.8c-0.3,1.6-0.6,1.8-0.5,2.4c0,0.2,0.1,0.6,0,0.8
		c-0.1,0.1-0.2,0.2-0.1,0.3c0,0.1,0.2,0,0.5,0c0,0,0.1,0,0.3,0.1c0.5,0.1,0.5,0.1,0.6,0.1c0.2,0,0.2,0,0.3,0c0.2,0,0.2,0.1,0.3,0.1
		c0.3,0.1,0.4-0.1,0.7-0.1c0.2,0,0.2,0.1,0.4,0.1c0.1,0,0.2,0,0.5,0c0.4-0.1,0.4-0.1,0.6-0.1c0.2,0,0.2,0,0.6,0.1c0.3,0,0.5,0,0.6,0
		c0,0,0,0,0.1-0.1c0.1-0.1,0.3-0.1,0.4-0.1c0.6,0,0.8,0,0.9,0c0.2-0.1-0.1-0.4-0.3-0.7c-0.1-0.2-0.1-0.2-0.1-0.8
		c-0.1-0.7-0.1-1-0.3-1.5c-0.2-0.5-0.4-0.9-0.5-1c-0.2-0.3-0.4-0.6-0.6-0.8c-0.2,0.1-1,0.3-2.1,0.3C39.8,10.9,39.3,10.7,39.1,10.7z"
		/>
</g>
<g>
	<g>
		<path class="st0" d="M18.6,10.2c0,0,0.3,0.7,0.3,0.7c0.1,0.3,0.2,0.4,0.3,0.6c0.2,0.5,0.3,1,0.3,1.1c0.1,0.4,0,0.5-0.1,1.7
			c-0.1,1.2,0,1.1-0.1,1.3c-0.1,0.6-0.3,0.9-0.3,1.6c0,0.3,0,0.6,0,0.7c0,0.6,0.2,0.7,0.2,1.2c0.1,0.6,0,1-0.1,1.4
			c-0.1,0.4-0.1,0.4-0.3,1.1c-0.1,0.5-0.1,0.7-0.2,0.8c0,0.3,0,0.6,0.1,0.8c0,0.1,0.1,0.2,0.1,0.4c0,0.1,0,0.2,0,0.3
			c0,0.4,0.3,0.5,0.3,0.7c0,0.2-0.2,0.2-0.4,0.3c0,0-0.5,0.2-0.9,0c-0.1-0.1-0.2-0.1-0.3-0.3c-0.1-0.2,0-0.3,0.1-0.5
			c0.1-0.2,0.1-0.2,0.2-0.4c0-0.2,0-0.3,0-0.4c0-0.3,0.1-0.4,0.1-0.9c0-0.3,0-0.6,0-0.8c0-0.5-0.2-0.5-0.2-1.1c0-0.2,0-0.4,0-0.5
			c0-0.3,0.1-0.6,0.1-0.8c0-0.2,0.1-0.3,0.1-0.6c0-0.1,0-0.3,0-0.3c0-0.5-0.2-0.7-0.3-1.1c-0.1-0.4,0.1-0.4,0-1.1
			c0-0.5-0.1-0.4-0.2-0.9c0-0.5,0-0.7-0.1-1.3c0-0.2-0.1-0.4-0.1-0.4c-0.1,0-0.1,0.3-0.2,0.6c-0.1,0.4-0.1,0.6-0.1,0.9
			c-0.1,0.6-0.2,0.5-0.2,1c-0.1,0.8,0.2,1.1,0,1.7c-0.2,0.6-0.2,0.7-0.2,0.7c-0.1,0.1-0.1,0.2-0.1,0.4c0,0.1,0.1,0.2,0.2,0.4
			c0,0,0.1,0.2,0.1,0.4c0,0.2,0,0.4,0,0.6c0,0.3-0.1,0.5-0.1,0.8c0,0.4-0.1,0.6-0.1,1c0,0.3,0,0.6,0,0.8c0,0.3,0,0.5,0,0.6
			c0,0.1,0,0.2,0,0.3c0.1,0.3,0.2,0.7,0.2,0.8c0.1,0.2,0.1,0.2,0.1,0.3C16.8,25,16.5,25,16.5,25c-0.1,0-0.1,0-0.3,0
			c-0.2,0-0.2,0.1-0.3,0.1c-0.2,0-0.5-0.1-0.6-0.2c0-0.1-0.2-0.2-0.2-0.4c0-0.1,0.1-0.1,0.2-0.3c0-0.1,0-0.2,0.1-0.5
			c0-0.3,0.1-0.3,0.1-0.4c0-0.1,0-0.3,0-0.9c0-0.4-0.1-0.7-0.1-0.8c0-0.1-0.1-0.3-0.2-0.7C15,20.4,15,20.5,15,20.4
			c-0.1-0.4-0.1-0.6,0-1c0-0.3,0.1-0.5,0.2-1.1c0.1-0.5,0.1-0.6,0.1-0.7c0-0.4-0.1-0.6-0.2-0.9c0,0-0.2-0.7-0.3-1.5
			c-0.1-0.5,0-0.4,0-1.4c0-1.1-0.1-1.2,0-1.6c0.2-0.5,0.4-1,0.4-1c0,0,0.1-0.1,0.2-0.3c0-0.1,0.1-0.3,0.1-0.5c0-0.1,0-0.3,0-0.4h3.2
			L18.6,10.2z"/>
		<path class="st1" d="M14.7,12.3c0.1,0.1,0.3,0,0.6,0.2c0.1,0,0.3,0.2,0.8,0.4c0.3,0.2,0.5,0.3,0.5,0.4c0.1,0.1,0.1,0.2,0.3,0.2
			c0.1,0,0.1,0.1,0.2,0.1c0.2,0,0.2-0.1,0.4-0.3c0.1-0.1,0.1-0.1,0.4-0.2c0.3-0.2,0.3-0.2,0.5-0.3c0.2-0.1,0.2-0.1,0.4-0.2
			c0.2-0.1,0.3-0.1,0.4-0.2c0,0,0.1-0.1,0.1-0.1c0-0.1,0-0.2-0.1-0.5c0,0,0-0.1,0-0.1c0,0,0-0.1-0.1-0.2c-0.1-0.1-0.1-0.1-0.1-0.2
			C18.9,11,19,11,18.9,11c-0.1-0.1-0.3,0.1-0.5,0.2c-0.7,0.3-1.4,0.3-1.6,0.2c-0.1,0-0.3,0-0.6-0.1c-0.5-0.2-0.7-0.4-0.9-0.3
			c0,0-0.1,0.1-0.2,0.3c-0.1,0.2-0.2,0.3-0.2,0.5C14.7,12.2,14.7,12.3,14.7,12.3z"/>
		<path class="st1" d="M17.7,13.7"/>
	</g>
	<path class="st2" d="M15.4,10.8c-0.2,0.3-0.4,0.7-0.6,1.3c-0.2,0.7-0.3,1.2-0.3,1.7c-0.3,3.1-0.6,3.6-0.5,4.8c0,0.4,0.1,1.1,0,1.5
		c-0.1,0.2-0.2,0.4-0.1,0.5c0,0.1,0.2,0,0.5,0c0,0,0.1,0,0.3,0.1C14.9,21,15,21,15.1,21c0.2,0,0.2-0.1,0.3-0.1
		c0.2,0,0.2,0.1,0.3,0.2c0.3,0.1,0.4-0.2,0.7-0.2c0.2,0,0.2,0.1,0.4,0.1c0.1,0,0.2,0,0.5-0.1c0.4-0.1,0.4-0.2,0.6-0.2
		c0.2,0,0.2,0.1,0.6,0.1c0.3,0.1,0.5,0.1,0.6,0c0,0,0-0.1,0.1-0.1c0.1-0.1,0.3-0.1,0.4-0.2c0.6-0.1,0.8,0,0.9-0.1
		c0.2-0.2-0.1-0.7-0.3-1.5c-0.1-0.4-0.1-0.5-0.1-1.7c-0.1-1.3-0.1-2.1-0.3-3c-0.2-1.1-0.4-1.8-0.5-2c-0.2-0.6-0.4-1.2-0.6-1.6
		c-0.2,0.1-1,0.7-2.1,0.5C16.1,11.3,15.6,11,15.4,10.8z"/>
</g>
</svg>
