<?xml version="1.0" encoding="utf-8"?>
<!-- Generator: Adobe Illustrator 24.3.0, SVG Export Plug-In . SVG Version: 6.00 Build 0)  -->
<svg version="1.1" id="レイヤー_1" xmlns="http://www.w3.org/2000/svg" xmlns:xlink="http://www.w3.org/1999/xlink" x="0px"
	 y="0px" viewBox="0 0 77 11" style="enable-background:new 0 0 77 11;" xml:space="preserve">
<style type="text/css">
	.st0{fill:#FFFFFF;}
</style>
<g>
	<path class="st0" d="M2.5,2.7H0.2V0.5h6.9v2.2H4.9v7.8H2.5V2.7z M4.3,10V2.2h2.2V1H0.8v1.2h2.2V10H4.3z M1,1.2h5.4v0.1L1,1.2L1,1.2
		z M1,1.6h5.4v0.1L1,1.6L1,1.6z M1,1.9h5.4V2L1,1.9L1,1.9z"/>
	<path class="st0" d="M8.3,0.5h6.6v2.2h-4.1v1.8h3.8v2.1h-3.8v1.8H15v2.1H8.3V0.5z M14.4,10V8.8h-4.3V6.1h3.8V4.9h-3.8V2.2h4.1V1
		H8.9v9H14.4z M9.2,9.7h5.1v0.1L9.2,9.7L9.2,9.7z M9.1,1.2H14v0.1L9.1,1.2L9.1,1.2z M9.4,1.6H14v0.1L9.4,1.6L9.4,1.6z M9.5,9.4h4.7
		v0.1L9.5,9.4L9.5,9.4z M9.8,1.9H14V2L9.8,1.9L9.8,1.9z M9.9,9.1h4.4v0.1L9.9,9.1L9.9,9.1z M10.1,5.2h3.7v0.1L10.1,5.2L10.1,5.2z
		 M10.1,5.5h3.7v0.1L10.1,5.5L10.1,5.5z M10.1,5.8h3.7v0.1L10.1,5.8L10.1,5.8z"/>
	<path class="st0" d="M21.7,0.2c1.9,0,3.2,0.7,4.3,1.8l-1.7,1.6c-0.7-0.7-1.6-1.1-2.6-1.1c-1.8,0-2.9,1.3-2.9,3c0,1.7,1.1,3,2.9,3
		c1,0,1.9-0.4,2.6-1.1L25.9,9c-1,1-2.4,1.8-4.2,1.8c-3.1,0-5.4-2.3-5.4-5.3S18.5,0.2,21.7,0.2z M21.7,10.3c1.5,0,2.5-0.5,3.5-1.3
		l-0.9-1C23.6,8.6,22.6,9,21.7,9c-2.1,0-3.5-1.5-3.5-3.5c0-1.9,1.4-3.5,3.5-3.5c0.9,0,1.9,0.3,2.6,0.9L25.2,2
		c-0.9-0.9-2-1.4-3.5-1.4c-2.8,0-4.8,2.1-4.8,4.8S18.9,10.3,21.7,10.3z M17.1,5.1H18l0,0.1L17.1,5.1L17.1,5.1z M17.1,5.5H18v0.1
		L17.1,5.5L17.1,5.5z M17.1,5.8H18l0,0.1L17.1,5.8L17.1,5.8z M17.1,4.8H18l0,0.1L17.1,4.8L17.1,4.8z M17.1,6.1H18l0,0.1L17.1,6.1
		L17.1,6.1z M17.2,4.5h0.9l0,0.1L17.2,4.5L17.2,4.5z M17.1,6.5H18l0,0.1L17.1,6.5L17.1,6.5z M17.2,4.1h0.9l0,0.1L17.2,4.1L17.2,4.1z
		 M17.2,6.8h0.9l0,0.1L17.2,6.8L17.2,6.8z M17.3,3.8h1l0,0.1L17.3,3.8L17.3,3.8z M17.3,7.1h1l0,0.1L17.3,7.1L17.3,7.1z M17.5,3.5h1
		l-0.1,0.1L17.5,3.5L17.5,3.5z M17.4,7.5h1l0.1,0.1L17.4,7.5L17.4,7.5z M17.6,3.2h1.1l-0.1,0.1L17.6,3.2L17.6,3.2z M17.6,7.8h1.1
		l0.1,0.1L17.6,7.8L17.6,7.8z M17.9,2.8h1.2L19,2.9L17.9,2.8L17.9,2.8z M17.8,8.1H19l0.1,0.1L17.8,8.1L17.8,8.1z M18.1,2.5h1.4
		l-0.1,0.1L18.1,2.5L18.1,2.5z M18,8.4h1.3l0.1,0.1L18,8.4L18,8.4z M18.4,2.2h1.7l-0.2,0.1L18.4,2.2L18.4,2.2z M20,8.8l0.2,0.1h-1.7
		l-0.1-0.1H20z M18.8,1.8h2.9v0l-0.6,0h-2.4L18.8,1.8z M21.1,9.1c0.2,0,0.4,0,0.5,0v0h-2.8l-0.1-0.1H21.1z M19.3,1.5h2.4v0.1h-2.5
		L19.3,1.5z M21.7,9.4L21.7,9.4l-2.4,0.1l-0.1-0.1H21.7z M19.9,1.2h1.7v0.1h-1.9L19.9,1.2z M21.7,9.8L21.7,9.8L20,9.8l-0.2-0.1H21.7
		z M21.7,0.9L21.7,0.9l-0.8,0.1C21.1,0.9,21.2,0.9,21.7,0.9z M21.7,10.1L21.7,10.1L21.7,10.1h-0.8H21.7z"/>
	<path class="st0" d="M27.1,0.5h2.4v3.9h3.9V0.5h2.4v9.9h-2.4V6.5h-3.9v3.9h-2.4V0.5z M28.9,10V6.1H34V10h1.2V1H34v3.9h-5.1V1h-1.2
		v9H28.9z M27.9,1.1h0.9v0.1L27.9,1.1L27.9,1.1z M27.9,1.5h0.9v0.1L27.9,1.5L27.9,1.5z M27.9,1.8h0.9v0.1L27.9,1.8L27.9,1.8z
		 M27.9,2.1h0.9v0.1L27.9,2.1L27.9,2.1z M27.9,2.5h0.9v0.1L27.9,2.5L27.9,2.5z M27.9,2.8h0.9v0.1L27.9,2.8L27.9,2.8z M27.9,3.1h0.9
		v0.1L27.9,3.1L27.9,3.1z M27.9,3.5h0.9v0.1L27.9,3.5L27.9,3.5z M27.9,3.8h0.9v0.1L27.9,3.8L27.9,3.8z M27.9,4.1h0.9v0.1L27.9,4.1
		L27.9,4.1z M27.9,4.5h0.9v0.1L27.9,4.5L27.9,4.5z M27.9,4.8h0.9v0.1L27.9,4.8L27.9,4.8z M27.9,5.1H35v0.1L27.9,5.1L27.9,5.1z
		 M27.9,5.5H35v0.1L27.9,5.5L27.9,5.5z M27.9,5.8H35v0.1L27.9,5.8L27.9,5.8z M34.2,1.1H35v0.1L34.2,1.1L34.2,1.1z M34.2,1.5H35v0.1
		L34.2,1.5L34.2,1.5z M34.2,1.8H35v0.1L34.2,1.8L34.2,1.8z M34.2,2.1H35v0.1L34.2,2.1L34.2,2.1z M34.2,2.5H35v0.1L34.2,2.5L34.2,2.5
		z M34.2,2.8H35v0.1L34.2,2.8L34.2,2.8z M34.2,3.1H35v0.1L34.2,3.1L34.2,3.1z M34.2,3.5H35v0.1L34.2,3.5L34.2,3.5z M34.2,3.8H35v0.1
		L34.2,3.8L34.2,3.8z M34.2,4.1H35v0.1L34.2,4.1L34.2,4.1z M34.2,4.5H35v0.1L34.2,4.5L34.2,4.5z M34.2,4.8H35v0.1L34.2,4.8L34.2,4.8
		z"/>
	<path class="st0" d="M41.6,0.5h4c1.7,0,3,1.2,3,2.8c0,0.9-0.4,1.5-1.1,2v0c1,0.7,1.5,1.4,1.5,2.4c0,1.4-1.1,2.6-3,2.6h-4.4V0.5z
		 M46,10c1.5,0,2.4-1,2.4-2.2c0-0.9-0.5-1.7-1.6-2.4V5.3c0.9-0.5,1.2-1.2,1.2-2C48,2,46.9,1,45.6,1h-3.4v9H46z M43.4,1.2h2.7
		l0.3,0.1L43.4,1.2L43.4,1.2z M43.4,1.5h3.4l0,0L47,1.6L43.4,1.5L43.4,1.5z M43.4,1.9h3.8L47.3,2L43.4,1.9L43.4,1.9z M43.4,2.2h1.8
		c0.9,0,1.6,0.6,1.6,1.4c0,0.8-0.6,1.4-1.6,1.4h-1.8V2.2z M43.4,5.2h3.3l-0.1,0.1L43.4,5.2L43.4,5.2z M43.4,5.5h3.1l0.1,0.1
		L43.4,5.5L43.4,5.5z M43.4,5.8H47l0.1,0.1L43.4,5.8L43.4,5.8z M43.4,6.1h2.1c0.9,0,1.5,0.6,1.5,1.3c0,0.8-0.6,1.3-1.5,1.3h-2.1V6.1
		z M43.4,9.1h4.3l-0.1,0.1L43.4,9.1L43.4,9.1z M43.4,9.4h4l-0.1,0.1L43.4,9.4L43.4,9.4z M43.4,9.7h3.3L46,9.8L43.4,9.7L43.4,9.7z
		 M45.2,4.5c0.6,0,1-0.4,1-0.9c0-0.5-0.4-0.9-1-0.9H44v1.8H45.2z M45.5,8.3c0.6,0,0.9-0.3,0.9-0.9c0-0.5-0.4-0.9-0.9-0.9H44v1.7
		H45.5z M47.5,2.2L47.5,2.2l-1.3,0.1L46,2.2H47.5z M46.3,4.8h0.9l-0.1,0.1L46.3,4.8L46.3,4.8z M46.4,8.8H48l0,0.1h-1.7L46.4,8.8z
		 M47.4,6.1L47.4,6.1l-0.8,0.1l-0.1-0.1H47.4z M46.5,2.5h1.1l0,0.1L46.5,2.5L46.5,2.5z M46.6,4.5h0.8l-0.1,0.1L46.6,4.5L46.6,4.5z
		 M46.7,2.9h1v0.1L46.7,2.9L46.7,2.9z M46.8,8.4h1.3l0,0.1L46.8,8.4L46.8,8.4z M46.8,4.2h0.8l0,0.1L46.8,4.2L46.8,4.2z M47.7,6.5
		L47.7,6.5l-0.8,0.1l-0.1-0.1H47.7z M46.9,3.2h0.9v0.1L46.9,3.2L46.9,3.2z M46.9,3.8h0.8l0,0.1L46.9,3.8L46.9,3.8z M46.9,3.5h0.9
		v0.1L46.9,3.5L46.9,3.5z M47.1,8.1h1.1l0,0.1L47.1,8.1L47.1,8.1z M47.9,6.8L47.9,6.8l-0.8,0.1l0-0.1H47.9z M47.2,7.8h1v0.1
		L47.2,7.8L47.2,7.8z M47.2,7.1h0.9l0,0.1L47.2,7.1L47.2,7.1z M47.2,7.4h0.9v0.1L47.2,7.4L47.2,7.4z"/>
	<path class="st0" d="M50.2,0.5h2.4v6.2c0,1.3,0.6,1.8,1.5,1.8c0.9,0,1.5-0.5,1.5-1.8V0.5H58v6.6c0,2.3-1.8,3.7-3.9,3.7
		c-2.3,0-3.9-1.4-3.9-3.7V0.5z M54,10.3c1.8,0,3.3-1.2,3.3-3.2V1h-1.2v5.8C56.2,8.4,55.3,9,54,9C52.9,9,52,8.4,52,6.8V1h-1.2v6.1
		C50.8,9.1,52.1,10.3,54,10.3z M50.9,4.7h0.9v0.1L50.9,4.7L50.9,4.7z M50.9,5h0.9v0.1L50.9,5L50.9,5z M50.9,5.3h0.9v0.1L50.9,5.3
		L50.9,5.3z M50.9,5.7h0.9v0.1L50.9,5.7L50.9,5.7z M50.9,6h0.9v0.1L50.9,6L50.9,6z M50.9,6.3h0.9v0.1L50.9,6.3L50.9,6.3z M50.9,6.7
		h0.9v0.1L50.9,6.7L50.9,6.7z M50.9,7h0.9l0,0.1L50.9,7L50.9,7z M50.9,7.3h0.9l0,0.1L50.9,7.3L50.9,7.3z M51,7.7h0.9l0,0.1L51,7.7
		L51,7.7z M51,8h1l0,0.1L51,8L51,8z M51.1,8.3h1l0.1,0.1L51.1,8.3L51.1,8.3z M51.3,8.6h1.1l0.1,0.1L51.3,8.6L51.3,8.6z M52.9,9
		l0.2,0.1h-1.6L51.5,9H52.9z M56.3,9.3L56.3,9.3l-4.5,0.1l-0.1-0.1H56.3z M55.9,9.6l-0.1,0.1h-3.4l-0.1-0.1H55.9z M55.2,10L54.9,10
		h-1.8L52.9,10H55.2z M55.2,9h1.4l-0.1,0.1H55L55.2,9z M55.7,8.6h1.1l0,0.1L55.7,8.6L55.7,8.6z M56,8.3h1l0,0.1L56,8.3L56,8.3z
		 M56.1,8h1l0,0.1L56.1,8L56.1,8z M56.2,7.7h0.9l0,0.1L56.2,7.7L56.2,7.7z M56.3,7.3h0.9l0,0.1L56.3,7.3L56.3,7.3z M56.3,7h0.9v0.1
		L56.3,7L56.3,7z M56.3,4.7h0.9v0.1L56.3,4.7L56.3,4.7z M56.3,5h0.9v0.1L56.3,5L56.3,5z M56.3,5.3h0.9v0.1L56.3,5.3L56.3,5.3z
		 M56.3,5.7h0.9v0.1L56.3,5.7L56.3,5.7z M56.3,6h0.9v0.1L56.3,6L56.3,6z M56.3,6.3h0.9v0.1L56.3,6.3L56.3,6.3z M56.3,6.7h0.9v0.1
		L56.3,6.7L56.3,6.7z"/>
	<path class="st0" d="M59.1,10.2l4.2-7.5h-3.8V0.5h7.8v0.2l-4.4,7.4h4.4v2.2h-8.2V10.2z M66.7,10V8.7H62V8.5L66.5,1h-6.4v1.3h4.1
		v0.1L59.9,10H66.7z M60.3,9.7h0.8l0,0.1L60.3,9.7L60.3,9.7z M60.4,9.4h0.9l0,0.1L60.4,9.4L60.4,9.4z M60.6,9.1h0.9l-0.1,0.1
		L60.6,9.1L60.6,9.1z M60.8,8.8h0.9l0,0.1L60.8,8.8L60.8,8.8z M61,8.4h0.9l-0.1,0.1L61,8.4L61,8.4z M61.2,8.1h0.9l0,0.1L61.2,8.1
		L61.2,8.1z M61.4,7.8h0.9l-0.1,0.1L61.4,7.8L61.4,7.8z M61.6,7.4h0.9l-0.1,0.1L61.6,7.4L61.6,7.4z M61.8,7.1h0.9l0,0.1L61.8,7.1
		L61.8,7.1z M62,6.8h0.9l-0.1,0.1L62,6.8L62,6.8z M62.1,6.4H63l0,0.1L62.1,6.4L62.1,6.4z M62.3,6.1h0.9l0,0.1L62.3,6.1L62.3,6.1z
		 M62.5,5.8h0.9l0,0.1L62.5,5.8L62.5,5.8z M62.7,5.5h0.9l-0.1,0.1L62.7,5.5L62.7,5.5z M62.9,5.1h0.9l0,0.1L62.9,5.1L62.9,5.1z
		 M63.1,4.8H64l0,0.1L63.1,4.8L63.1,4.8z M63.3,4.5h0.9l-0.1,0.1L63.3,4.5L63.3,4.5z M63.5,4.1h0.9l0,0.1L63.5,4.1L63.5,4.1z
		 M63.6,3.8h1l0,0.1L63.6,3.8L63.6,3.8z M63.8,3.5h1l0,0.1L63.8,3.5L63.8,3.5z M64,3.2h1l0,0.1L64,3.2L64,3.2z M64.2,2.8h1l0,0.1
		L64.2,2.8L64.2,2.8z M64.4,2.5h1l-0.1,0.1L64.4,2.5L64.4,2.5z M64.6,2.2h1l0,0.1L64.6,2.2L64.6,2.2z M64.8,1.8h1l0,0.1L64.8,1.8
		L64.8,1.8z M64.9,1.5h1l0,0.1L64.9,1.5L64.9,1.5z M65.1,1.2h1l0,0.1L65.1,1.2L65.1,1.2z"/>
	<path class="st0" d="M68.5,10.2l4.2-7.5h-3.8V0.5h7.8v0.2l-4.4,7.4h4.4v2.2h-8.2V10.2z M76.1,10V8.7h-4.6V8.5L75.9,1h-6.4v1.3h4.1
		v0.1L69.3,10H76.1z M69.7,9.7h0.8l0,0.1L69.7,9.7L69.7,9.7z M69.8,9.4h0.9l0,0.1L69.8,9.4L69.8,9.4z M70,9.1h0.9l-0.1,0.1L70,9.1
		L70,9.1z M70.2,8.8h0.9l0,0.1L70.2,8.8L70.2,8.8z M70.4,8.4h0.9l-0.1,0.1L70.4,8.4L70.4,8.4z M70.6,8.1h0.9l0,0.1L70.6,8.1
		L70.6,8.1z M70.8,7.8h0.9l-0.1,0.1L70.8,7.8L70.8,7.8z M71,7.4h0.9l-0.1,0.1L71,7.4L71,7.4z M71.2,7.1h0.9l0,0.1L71.2,7.1L71.2,7.1
		z M71.3,6.8h0.9l-0.1,0.1L71.3,6.8L71.3,6.8z M71.5,6.4h0.9l0,0.1L71.5,6.4L71.5,6.4z M71.7,6.1h0.9l0,0.1L71.7,6.1L71.7,6.1z
		 M71.9,5.8h0.9l0,0.1L71.9,5.8L71.9,5.8z M72.1,5.5H73L73,5.5L72.1,5.5L72.1,5.5z M72.3,5.1h0.9l0,0.1L72.3,5.1L72.3,5.1z
		 M72.5,4.8h0.9l0,0.1L72.5,4.8L72.5,4.8z M72.7,4.5h0.9l-0.1,0.1L72.7,4.5L72.7,4.5z M72.9,4.1h0.9l0,0.1L72.9,4.1L72.9,4.1z
		 M73,3.8h1l0,0.1L73,3.8L73,3.8z M73.2,3.5h1l0,0.1L73.2,3.5L73.2,3.5z M73.4,3.2h1l0,0.1L73.4,3.2L73.4,3.2z M73.6,2.8h1l0,0.1
		L73.6,2.8L73.6,2.8z M73.8,2.5h1l-0.1,0.1L73.8,2.5L73.8,2.5z M74,2.2h1l0,0.1L74,2.2L74,2.2z M74.2,1.8h1l0,0.1L74.2,1.8L74.2,1.8
		z M74.3,1.5h1l0,0.1L74.3,1.5L74.3,1.5z M74.5,1.2h1l0,0.1L74.5,1.2L74.5,1.2z"/>
</g>
</svg>
